# xmcd CD database file
#
# Track frame offsets:
#	150
#	20892
#	45302
#	60335
#	76922
#	93765
#	112062
#	134215
#	157912
#
# Disc length: 2355 seconds
#
# Revision: 3
# Processed by: cddbd v1.5.2PL0 Copyright (c) Steve Scherf et al.
# Submitted via: CDex 1.70beta2
#
DISCID=6c093109
DTITLE=Brownie McGhee - Brownie's Blues
DYEAR=1960
DGENRE=Blues
TTITLE0=Jump, Little Children
TTITLE1=Lonesome Day
TTITLE2=One Thing For Sure
TTITLE3=The Killin' Floor
TTITLE4=Little Black Engine
TTITLE5=I Don't Know The REason
TTITLE6=Trouble In Mind
TTITLE7=Everyday I Have The Blues
TTITLE8=Door To Success
EXTD=YEAR: 1960
EXTT0=
EXTT1=
EXTT2=
EXTT3=
EXTT4=
EXTT5=
EXTT6=
EXTT7=
EXTT8=
PLAYORDER=
